<?xml version="1.0" encoding="utf-8"?>
<!-- Generator: Adobe Illustrator 16.0.4, SVG Export Plug-In . SVG Version: 6.00 Build 0)  -->
<!DOCTYPE svg PUBLIC "-//W3C//DTD SVG 1.1//EN" "http://www.w3.org/Graphics/SVG/1.1/DTD/svg11.dtd">
<svg version="1.1" id="Layer_1" xmlns="http://www.w3.org/2000/svg" xmlns:xlink="http://www.w3.org/1999/xlink" x="0px" y="0px"
	 width="402.659px" height="68.045px" viewBox="0 0 402.659 68.045" enable-background="new 0 0 402.659 68.045"
	 xml:space="preserve">
<circle fill="#2C59DE" stroke="#2C59DE" stroke-miterlimit="10" cx="16.495" cy="33.973" r="15.995"/>
<circle fill="#2C59DE" stroke="#2C59DE" stroke-miterlimit="10" cx="221.495" cy="33.973" r="15.995"/>
<circle fill="none" stroke="#2C59DE" stroke-width="7" stroke-miterlimit="10" cx="118.995" cy="34.021" r="30.522"/>
<line fill="none" stroke="#2C59DE" stroke-width="18" stroke-miterlimit="10" x1="16.289" y1="34.022" x2="90.289" y2="34.022"/>
<line fill="none" stroke="#2C59DE" stroke-width="18" stroke-miterlimit="10" x1="147.289" y1="34.022" x2="221.289" y2="34.022"/>
<g>
	<path fill="#E06519" stroke="#E06519" stroke-miterlimit="10" d="M132.789,51.522c0,1.657-1.343,3-3,3h-22c-1.657,0-3-1.343-3-3
		v-19c0-1.657,1.343-3,3-3h22c1.657,0,3,1.343,3,3V51.522z"/>
	<path fill="none" stroke="#E06519" stroke-width="4" stroke-miterlimit="10" d="M127.289,22.022c0-4.969-3.551-9-8.522-9
		c-4.971,0-9.426,4.029-9.426,9c0,0.219-0.052,0-0.052,1l0,0v18h18v-18.5l0,0C127.289,22.356,127.289,22.191,127.289,22.022z"/>
</g>
<text transform="matrix(1 0 0 1 261.2891 50.3301)" fill="#2C59DE" font-family="'AvenirNextCondensed-Heavy'" font-size="54">mcTLS</text>
<g>
	<circle fill="#FFFFFF" cx="118.789" cy="38.356" r="4"/>
	<polygon fill="#FFFFFF" points="116.372,49.022 117.31,41.022 120.372,41.022 121.372,49.022 	"/>
</g>
</svg>
