<?xml version="1.0" encoding="utf-8"?>
<!-- Generator: Adobe Illustrator 16.0.4, SVG Export Plug-In . SVG Version: 6.00 Build 0)  -->
<!DOCTYPE svg PUBLIC "-//W3C//DTD SVG 1.1//EN" "http://www.w3.org/Graphics/SVG/1.1/DTD/svg11.dtd">
<svg version="1.1" id="Layer_1" xmlns="http://www.w3.org/2000/svg" xmlns:xlink="http://www.w3.org/1999/xlink" x="0px" y="0px"
	 width="269.99px" height="68.045px" viewBox="0 0 269.99 68.045" enable-background="new 0 0 269.99 68.045" xml:space="preserve">
<circle fill="#2C59DE" stroke="#2C59DE" stroke-miterlimit="10" cx="16.495" cy="33.973" r="15.995"/>
<circle fill="#2C59DE" stroke="#2C59DE" stroke-miterlimit="10" cx="253.495" cy="33.973" r="15.995"/>
<circle fill="none" stroke="#2C59DE" stroke-width="7" stroke-miterlimit="10" cx="134.995" cy="34.021" r="30.522"/>
<line fill="none" stroke="#2C59DE" stroke-width="18" stroke-miterlimit="10" x1="16.289" y1="34.022" x2="106.289" y2="34.022"/>
<line fill="none" stroke="#2C59DE" stroke-width="18" stroke-miterlimit="10" x1="163.289" y1="34.022" x2="253.289" y2="34.022"/>
<g>
	<path fill="#2C59DE" stroke="#2C59DE" stroke-miterlimit="10" d="M148.789,51.522c0,1.657-1.343,3-3,3h-22c-1.657,0-3-1.343-3-3
		v-19c0-1.657,1.343-3,3-3h22c1.657,0,3,1.343,3,3V51.522z"/>
	<path fill="none" stroke="#2C59DE" stroke-width="4" stroke-miterlimit="10" d="M143.289,22.022c0-4.969-3.551-9-8.522-9
		c-4.971,0-9.426,4.029-9.426,9c0,0.219-0.052,0-0.052,1l0,0v18h18v-18.5l0,0C143.289,22.356,143.289,22.191,143.289,22.022z"/>
</g>
</svg>
