<?xml version="1.0" encoding="utf-8"?>
<!-- Generator: Adobe Illustrator 16.0.4, SVG Export Plug-In . SVG Version: 6.00 Build 0)  -->
<!DOCTYPE svg PUBLIC "-//W3C//DTD SVG 1.1//EN" "http://www.w3.org/Graphics/SVG/1.1/DTD/svg11.dtd">
<svg version="1.1" id="Layer_1" xmlns="http://www.w3.org/2000/svg" xmlns:xlink="http://www.w3.org/1999/xlink" x="0px" y="0px"
	 width="402.336px" height="68.045px" viewBox="0 0 402.336 68.045" enable-background="new 0 0 402.336 68.045"
	 xml:space="preserve">
<circle fill="#2C59DE" stroke="#2C59DE" stroke-miterlimit="10" cx="16.495" cy="33.974" r="15.995"/>
<circle fill="#2C59DE" stroke="#2C59DE" stroke-miterlimit="10" cx="221.495" cy="33.973" r="15.995"/>
<circle fill="none" stroke="#2C59DE" stroke-width="7" stroke-miterlimit="10" cx="118.995" cy="34.021" r="30.522"/>
<line fill="none" stroke="#2C59DE" stroke-width="18" stroke-miterlimit="10" x1="16.289" y1="34.022" x2="90.289" y2="34.022"/>
<line fill="none" stroke="#2C59DE" stroke-width="18" stroke-miterlimit="10" x1="147.289" y1="34.022" x2="221.289" y2="34.022"/>
<g>
	<path fill="#E06519" stroke="#E06519" stroke-miterlimit="10" d="M132.789,51.522c0,1.656-1.343,3-3,3h-22c-1.657,0-3-1.344-3-3
		v-19c0-1.656,1.343-3,3-3h22c1.657,0,3,1.344,3,3V51.522z"/>
	<path fill="none" stroke="#E06519" stroke-width="4" stroke-miterlimit="10" d="M127.289,22.022c0-4.969-3.551-9-8.522-9
		c-4.971,0-9.426,4.029-9.426,9c0,0.219-0.052,0-0.052,1l0,0v18h18v-18.5l0,0C127.289,22.356,127.289,22.191,127.289,22.022z"/>
</g>
<g>
	<path fill="#2C59DE" d="M303.895,50.33h-10.854V33.05c0-0.972-0.135-1.728-0.405-2.268s-0.711-0.811-1.323-0.811
		c-0.684,0-1.188,0.279-1.512,0.838c-0.324,0.559-0.486,1.305-0.486,2.24v17.28h-10.8V33.05c0-0.972-0.135-1.728-0.405-2.268
		s-0.711-0.811-1.323-0.811c-0.685,0-1.188,0.279-1.512,0.838c-0.324,0.559-0.486,1.305-0.486,2.24v17.28h-10.8V21.332h10.53v3.511
		h0.162c0.396-1.225,1.196-2.296,2.403-3.214c1.206-0.918,2.708-1.377,4.509-1.377c2.052,0,3.608,0.424,4.671,1.269
		c1.062,0.847,1.863,1.953,2.403,3.322h0.162c0.396-1.225,1.224-2.296,2.484-3.214c1.26-0.918,2.79-1.377,4.59-1.377
		c1.764,0,3.167,0.351,4.212,1.054c1.043,0.701,1.844,1.639,2.403,2.808c0.558,1.17,0.926,2.529,1.107,4.077
		c0.18,1.548,0.27,3.168,0.27,4.859V50.33z"/>
	<path fill="#2C59DE" d="M307.566,35.75c0-2.195,0.27-4.229,0.81-6.103c0.54-1.871,1.332-3.49,2.376-4.859
		c1.043-1.367,2.303-2.43,3.78-3.186c1.476-0.756,3.167-1.135,5.076-1.135c1.655,0,3.105,0.271,4.347,0.811
		c1.242,0.539,2.276,1.17,3.105,1.89l-4.158,8.532c-0.504-0.648-1.207-0.973-2.106-0.973c-0.721,0-1.377,0.406-1.971,1.215
		c-0.594,0.811-0.891,2.098-0.891,3.861c0,1.801,0.297,3.098,0.891,3.889c0.594,0.792,1.25,1.188,1.971,1.188
		c0.899,0,1.602-0.324,2.106-0.972l4.158,8.586c-0.829,0.721-1.854,1.351-3.078,1.89c-1.224,0.541-2.682,0.811-4.374,0.811
		c-1.909,0-3.6-0.379-5.076-1.135c-1.477-0.756-2.736-1.816-3.78-3.186c-1.044-1.367-1.836-2.997-2.376-4.887
		C307.836,40.097,307.566,38.019,307.566,35.75z"/>
	<path fill="#2C59DE" d="M344.988,50.33h-11.556V22.034h-6.75v-9.936h25.056v9.936h-6.75V50.33z"/>
	<path fill="#2C59DE" d="M354.546,12.099h11.826V39.53h9.828v10.8h-21.653V12.099z"/>
	<path fill="#2C59DE" d="M388.458,51.302c-1.296,0-2.53-0.117-3.699-0.351c-1.171-0.235-2.25-0.55-3.24-0.945
		s-1.899-0.845-2.727-1.35c-0.829-0.504-1.531-1.008-2.106-1.513l5.616-8.91c0.827,0.686,1.736,1.242,2.727,1.675
		c0.99,0.432,1.972,0.647,2.943,0.647c0.611,0,1.125-0.152,1.539-0.459c0.413-0.305,0.621-0.746,0.621-1.322
		c0-0.684-0.297-1.26-0.892-1.729c-0.594-0.467-1.521-1.008-2.78-1.619c-1.08-0.504-2.106-1.071-3.078-1.701
		c-0.973-0.63-1.836-1.395-2.592-2.295c-0.757-0.9-1.359-1.953-1.81-3.16c-0.45-1.205-0.675-2.619-0.675-4.238
		c0-2.34,0.413-4.328,1.242-5.967c0.827-1.639,1.881-2.971,3.159-3.996c1.277-1.026,2.699-1.773,4.266-2.241
		s3.105-0.702,4.617-0.702c2.304,0,4.364,0.36,6.183,1.08c1.817,0.721,3.339,1.656,4.563,2.809l-5.778,8.801
		c-0.612-0.611-1.332-1.124-2.16-1.539c-0.828-0.412-1.62-0.62-2.376-0.62c-0.576,0-1.099,0.144-1.565,0.432
		c-0.469,0.288-0.702,0.792-0.702,1.513c0,0.576,0.243,1.044,0.729,1.403c0.486,0.36,1.432,0.883,2.835,1.566
		c0.792,0.396,1.674,0.891,2.646,1.485c0.972,0.594,1.89,1.35,2.754,2.268s1.593,2.025,2.187,3.32
		c0.595,1.297,0.892,2.827,0.892,4.59c0,2.305-0.378,4.285-1.134,5.941c-0.757,1.656-1.765,3.006-3.024,4.049
		c-1.261,1.045-2.691,1.818-4.293,2.322C391.742,51.05,390.113,51.302,388.458,51.302z"/>
</g>
<g>
	<circle fill="#FFFFFF" cx="118.789" cy="38.356" r="4"/>
	<polygon fill="#FFFFFF" points="116.372,49.022 117.31,41.022 120.372,41.022 121.372,49.022 	"/>
</g>
</svg>
